<mxfile host="app.diagrams.net" modified="2024-06-19T01:19:08.505Z" agent="Mozilla/5.0 (Macintosh; Intel Mac OS X 10_15_7) AppleWebKit/537.36 (KHTML, like Gecko) Chrome/125.0.0.0 Safari/537.36" version="24.5.5" etag="o7nOXoohXFhF_D4XWN9w" type="github">
  <diagram name="第 1 页" id="bshv56rLdN-cTnN0iuEb">
    <mxGraphModel>
      <root>
        <mxCell id="0" />
        <mxCell id="1" parent="0" />
      </root>
    </mxGraphModel>
  </diagram>
</mxfile>
